<svg width="40" height="40" viewBox="0 0 40 40" fill="none" xmlns="http://www.w3.org/2000/svg">
<path fill-rule="evenodd" clip-rule="evenodd" d="M15.8067 14.0706C15.8067 15.0724 15.0527 15.8739 13.8419 15.8739H13.8198C12.654 15.8739 11.9004 15.0724 11.9004 14.0706C11.9004 13.0477 12.677 12.2686 13.8648 12.2686C15.0527 12.2686 15.7842 13.0477 15.8067 14.0706ZM15.5789 17.298V27.7309H12.1066V17.298H15.5789ZM28.0999 27.7314L28.1 21.7495C28.1 18.545 26.387 17.0536 24.1021 17.0536C22.2585 17.0536 21.4331 18.0662 20.9722 18.7766V17.2988H17.4995C17.5453 18.2778 17.4995 27.7317 17.4995 27.7317H20.9722V21.9051C20.9722 21.5933 20.9948 21.2823 21.0866 21.059C21.3375 20.4361 21.9089 19.7912 22.8682 19.7912C24.1252 19.7912 24.6277 20.7479 24.6277 22.1498V27.7314H28.0999Z" fill="white"/>
</svg>
