<svg width="40" height="40" viewBox="0 0 40 40" fill="none" xmlns="http://www.w3.org/2000/svg">
<path d="M20 10C18.0222 10 16.0888 10.5865 14.4443 11.6853C12.7998 12.7841 11.5181 14.3459 10.7612 16.1732C10.0043 18.0004 9.8063 20.0111 10.1922 21.9509C10.578 23.8907 11.5304 25.6725 12.9289 27.0711C14.3275 28.4696 16.1093 29.422 18.0491 29.8079C19.9889 30.1937 21.9996 29.9957 23.8268 29.2388C25.6541 28.4819 27.2159 27.2002 28.3147 25.5557C29.4135 23.9112 30 21.9778 30 20C30 18.6868 29.7413 17.3864 29.2388 16.1732C28.7363 14.9599 27.9997 13.8575 27.0711 12.9289C26.1425 12.0003 25.0401 11.2638 23.8268 10.7612C22.6136 10.2587 21.3132 10 20 10V10ZM20 12C22.0547 11.9992 24.0298 12.7949 25.51 14.22C23.982 15.1162 22.3629 15.847 20.68 16.4C19.8425 14.9568 18.8823 13.5884 17.81 12.31C18.522 12.105 19.2591 12.0007 20 12V12ZM15.89 13.15C16.9377 14.3485 17.878 15.6368 18.7 17C16.7371 17.4874 14.7225 17.7359 12.7 17.74H12.34C12.9072 15.8196 14.1739 14.1818 15.89 13.15V13.15ZM14 25.31C12.6988 23.8488 11.9861 21.9566 12 20C12 19.9 12 19.8 12 19.71H12.68C15.0474 19.6888 17.4014 19.3525 19.68 18.71C20 19.32 20.3 19.95 20.59 20.6C19.0315 21.1494 17.58 21.9648 16.3 23.01L16 23.25C15.2871 23.8902 14.6189 24.5785 14 25.31V25.31ZM20 28C18.4061 28.0035 16.8482 27.5261 15.53 26.63C16.0168 26.0716 16.5378 25.5439 17.09 25.05L17.41 24.78C18.5932 23.7849 19.949 23.0155 21.41 22.51C22.0113 24.136 22.4795 25.8082 22.81 27.51C21.9098 27.8387 20.9583 28.0046 20 28V28ZM24.63 26.51C24.3028 24.9966 23.8752 23.5066 23.35 22.05H23.69C23.7294 22.0403 23.7706 22.0403 23.81 22.05H23.92H24.02H24.5C25.5524 22.053 26.5968 22.2322 27.59 22.58C27.0443 24.1704 26.0079 25.5464 24.63 26.51V26.51ZM24.5 20C24.29 20 24.08 20 23.88 20C23.7505 19.9837 23.6195 19.9837 23.49 20C23.2182 20.0167 22.9477 20.0501 22.68 20.1H22.58C22.29 19.43 21.99 18.78 21.66 18.1C23.4506 17.4851 25.1704 16.6805 26.79 15.7C27.5934 16.9894 28.0131 18.4809 28 20C28 20.17 28 20.34 28 20.51C26.8667 20.1602 25.686 19.9882 24.5 20V20Z" fill="white"/>
</svg>
