<svg width="40" height="40" viewBox="0 0 40 40" fill="none" xmlns="http://www.w3.org/2000/svg">
<path d="M28.07 14.3495H23V15.7595H28.09L28.07 14.3495ZM27 24.0495C26.6154 24.3044 26.1612 24.4337 25.7 24.4195C25.3947 24.4514 25.0862 24.4198 24.7937 24.3269C24.5011 24.234 24.2309 24.0817 24 23.8795C23.573 23.3954 23.3507 22.7644 23.38 22.1195H30C30.0477 21.4481 29.9904 20.7733 29.83 20.1195C29.6749 19.4976 29.4034 18.9106 29.03 18.3895C28.6541 17.8842 28.1686 17.4705 27.61 17.1795C26.9884 16.8731 26.3029 16.7188 25.61 16.7295C24.9583 16.7248 24.3123 16.8506 23.71 17.0995C23.1585 17.332 22.6588 17.672 22.24 18.0995C21.8224 18.5357 21.499 19.0531 21.29 19.6195C21.0657 20.2311 20.9539 20.8782 20.96 21.5295C20.9497 22.1902 21.0581 22.8472 21.28 23.4695C21.4685 24.0331 21.7677 24.5533 22.16 24.9995C22.5659 25.4377 23.0648 25.7794 23.62 25.9995C24.2391 26.2354 24.8976 26.3508 25.56 26.3395C26.4894 26.3685 27.407 26.1252 28.2 25.6395C29.0009 25.0704 29.5775 24.2391 29.83 23.2895H27.62C27.5017 23.6037 27.284 23.8706 27 24.0495ZM23.57 19.9295C23.6478 19.6802 23.777 19.45 23.9493 19.2536C24.1215 19.0573 24.3329 18.8992 24.57 18.7895C24.884 18.6482 25.2258 18.5799 25.57 18.5895C25.8186 18.5683 26.0689 18.6011 26.3036 18.6857C26.5384 18.7703 26.7521 18.9046 26.93 19.0795C27.2698 19.4955 27.4878 19.9973 27.56 20.5295H23.41C23.4262 20.3263 23.463 20.1253 23.52 19.9295H23.57ZM18.28 19.4495C18.789 19.2376 19.2312 18.8921 19.56 18.4495C19.8622 17.9796 20.0124 17.4279 19.99 16.8695C20.0096 16.3604 19.9103 15.8537 19.7 15.3895C19.5233 14.9875 19.2397 14.6416 18.88 14.3895C18.4987 14.1275 18.0656 13.9502 17.61 13.8695C17.0708 13.7565 16.5209 13.7028 15.97 13.7095H10V26.2895H16.1C16.6567 26.29 17.2112 26.2194 17.75 26.0795C18.2607 25.9474 18.7446 25.7275 19.18 25.4295C19.6017 25.1373 19.9452 24.7458 20.18 24.2895C20.4399 23.7793 20.5672 23.2119 20.55 22.6395C20.5689 21.9303 20.37 21.2323 19.98 20.6395C19.5606 20.0435 18.9385 19.6205 18.23 19.4495H18.28ZM12.77 15.8595H15.36C15.5979 15.8593 15.8355 15.8793 16.07 15.9195C16.2859 15.9516 16.4933 16.0263 16.68 16.1395C16.8603 16.2416 17.0065 16.3947 17.1 16.5795C17.2158 16.8013 17.271 17.0496 17.26 17.2995C17.2786 17.5148 17.2457 17.7314 17.164 17.9314C17.0823 18.1313 16.9541 18.309 16.79 18.4495C16.4321 18.6956 16.0039 18.8184 15.57 18.7995H12.77V15.8595ZM17.61 23.2995C17.5073 23.5034 17.3519 23.676 17.16 23.7995C16.9603 23.9238 16.7403 24.0118 16.51 24.0595C16.2541 24.1168 15.9922 24.1437 15.73 24.1395H12.73V20.6895H15.73C16.2448 20.667 16.7532 20.8108 17.18 21.0995C17.3728 21.2726 17.5222 21.4886 17.616 21.7301C17.7098 21.9716 17.7454 22.2317 17.72 22.4895C17.747 22.7644 17.7094 23.0418 17.61 23.2995V23.2995Z" fill="white"/>
</svg>
