<svg width="96" height="104" viewBox="0 0 96 104" fill="none" xmlns="http://www.w3.org/2000/svg">
<path d="M23.9139 15.0063H20.8791C20.1358 16.9971 18.6494 18.364 15.5217 18.364H14.6546V21.6325H15.6765C17.9681 21.6325 19.3926 21.068 20.2287 20.2657V32.5674H14.4688V35.6577H29.1475V32.5674H23.9139V15.0063Z" fill="#E1D4D5"/>
<path d="M39.4324 14.5605C34.3537 14.5605 31.2879 17.7103 31.2879 25.3468C31.2879 32.9537 34.3537 36.1034 39.4324 36.1034C44.5111 36.1034 47.5769 32.9537 47.5769 25.3468C47.5769 17.7103 44.5111 14.5605 39.4324 14.5605ZM39.4324 17.3834C40.8569 17.3834 42.0027 17.9183 42.7769 19.2851L35.3137 28.9125C35.1279 27.932 35.035 26.7434 35.035 25.3468C35.0659 19.2554 36.7072 17.3834 39.4324 17.3834ZM39.4324 33.2805C37.884 33.2805 36.7072 32.6863 35.933 31.052L43.4892 21.3948C43.7059 22.4645 43.8298 23.7423 43.8298 25.3468C43.7988 31.3788 42.1575 33.2805 39.4324 33.2805Z" fill="#E1D4D5"/>
<path d="M56.4609 69.0371C51.3822 69.0371 48.3164 72.1868 48.3164 79.8234C48.3164 87.4303 51.3822 90.58 56.4609 90.58C61.5396 90.58 64.6054 87.4303 64.6054 79.8234C64.6054 72.1868 61.5396 69.0371 56.4609 69.0371ZM56.4609 71.86C57.8854 71.86 59.0312 72.3948 59.8054 73.7617L52.3422 83.3891C52.1564 82.4085 52.0635 81.22 52.0635 79.8234C52.0945 73.732 53.7358 71.86 56.4609 71.86ZM56.4609 87.7571C54.9125 87.7571 53.7358 87.1628 52.9616 85.5285L60.5177 75.8714C60.7345 76.9411 60.8583 78.2188 60.8583 79.8234C60.8274 85.8554 59.1861 87.7571 56.4609 87.7571Z" fill="#E1D4D5"/>
<path d="M75.3239 69.0371C70.7097 69.0371 67.8607 71.9491 67.8607 75.9308C67.8607 80.1503 70.7716 82.6165 74.8904 82.6165C77.0271 82.6165 78.7923 81.8143 79.7833 80.1503C79.7523 84.7857 78.4826 87.668 75.5097 87.668C73.342 87.668 72.1962 86.3903 71.8246 84.4291L68.1394 85.1125C68.7897 88.6783 71.3291 90.58 75.3858 90.58C81.0839 90.58 83.4684 86.004 83.4684 79.4371C83.4684 72.5731 80.6813 69.0371 75.3239 69.0371ZM75.4787 79.7937C73.1871 79.7937 71.5458 78.2485 71.5458 75.8714C71.5458 73.4645 73.0633 71.86 75.3858 71.86C78.4516 71.86 79.5355 74.2074 79.7523 76.5548C79.2258 78.4268 77.4607 79.7937 75.4787 79.7937Z" fill="#E1D4D5"/>
</svg>
