{
  "accessors": [
    {
      "bufferView": 2,
      "componentType": 5126,
      "count": 112,
      "max": [
        0.2330700010061264,
        0.042660001665353775,
        0.007170000113546848
      ],
      "min": [
        -0.8467000126838684,
        -0.8069499731063843,
        -0.0023799999617040157
      ],
      "type": "VEC3"
    },
    {
      "bufferView": 2,
      "byteOffset": 1344,
      "componentType": 5126,
      "count": 112,
      "max": [
        0.9327026605606079,
        0.8741769194602966,
        1.0
      ],
      "min": [
        -0.775871992111206,
        -0.8099275231361389,
        -0.6240208148956299
      ],
      "type": "VEC3"
    },
    {
      "bufferView": 1,
      "componentType": 5126,
      "count": 112,
      "max": [
        0.9950100183486938,
        0.9930499792098999
      ],
      "min": [
        0.004989999812096357,
        0.001230000052601099
      ],
      "type": "VEC2"
    },
    {
      "bufferView": 0,
      "componentType": 5125,
      "count": 114,
      "type": "SCALAR"
    },
    {
      "bufferView": 2,
      "byteOffset": 2688,
      "componentType": 5126,
      "count": 49908,
      "max": [
        2.5745298862457275,
        2.908720016479492,
        1.0769200325012207
      ],
      "min": [
        -3.531869888305664,
        -2.8895199298858643,
        -1.2346700429916382
      ],
      "type": "VEC3"
    },
    {
      "bufferView": 2,
      "byteOffset": 601584,
      "componentType": 5126,
      "count": 49908,
      "max": [
        0.9999985098838806,
        0.9999879002571106,
        0.9999499917030334
      ],
      "min": [
        -0.9999992251396179,
        -0.9999640583992004,
        -0.9998395442962646
      ],
      "type": "VEC3"
    },
    {
      "bufferView": 1,
      "byteOffset": 896,
      "componentType": 5126,
      "count": 49908,
      "max": [
        0.9996700286865234,
        0.9998999834060669
      ],
      "min": [
        0.00107999995816499,
        0.0006699999794363976
      ],
      "type": "VEC2"
    },
    {
      "bufferView": 0,
      "byteOffset": 456,
      "componentType": 5125,
      "count": 255645,
      "type": "SCALAR"
    },
    {
      "bufferView": 2,
      "byteOffset": 1200480,
      "componentType": 5126,
      "count": 3286,
      "max": [
        29.715900421142578,
        22.903949737548828,
        30.20499038696289
      ],
      "min": [
        -29.944089889526367,
        2.865370035171509,
        -27.956729888916016
      ],
      "type": "VEC3"
    },
    {
      "bufferView": 2,
      "byteOffset": 1239912,
      "componentType": 5126,
      "count": 3286,
      "max": [
        0.9950186014175415,
        0.9610152840614319,
        0.9983446002006531
      ],
      "min": [
        -0.9977984428405762,
        -0.9960256218910217,
        -0.9979528188705444
      ],
      "type": "VEC3"
    },
    {
      "bufferView": 0,
      "byteOffset": 1023036,
      "componentType": 5125,
      "count": 9684,
      "type": "SCALAR"
    },
    {
      "bufferView": 2,
      "byteOffset": 1279344,
      "componentType": 5126,
      "count": 8608,
      "max": [
        11.506730079650879,
        11.370889663696289,
        1.0951199531555176
      ],
      "min": [
        -13.467740058898926,
        -4.772819995880127,
        -2.4971699714660645
      ],
      "type": "VEC3"
    },
    {
      "bufferView": 2,
      "byteOffset": 1382640,
      "componentType": 5126,
      "count": 8608,
      "max": [
        0.9934989213943481,
        0.9877903461456299,
        0.9972076416015625
      ],
      "min": [
        -0.9938059449195862,
        -0.9886497855186462,
        -0.9982941746711731
      ],
      "type": "VEC3"
    },
    {
      "bufferView": 1,
      "byteOffset": 400160,
      "componentType": 5126,
      "count": 8608,
      "max": [
        0.636389970779419,
        0.7059400081634521
      ],
      "min": [
        0.04042999818921089,
        0.05942000076174736
      ],
      "type": "VEC2"
    },
    {
      "bufferView": 0,
      "byteOffset": 1061772,
      "componentType": 5125,
      "count": 12912,
      "type": "SCALAR"
    },
    {
      "bufferView": 2,
      "byteOffset": 1485936,
      "componentType": 5126,
      "count": 350,
      "max": [
        1.3184800148010254,
        1.6783000230789185,
        2.768660068511963
      ],
      "min": [
        -2.818540096282959,
        -1.7332099676132202,
        1.4731800556182861
      ],
      "type": "VEC3"
    },
    {
      "bufferView": 2,
      "byteOffset": 1490136,
      "componentType": 5126,
      "count": 350,
      "max": [
        0.7654815316200256,
        0.9193570017814636,
        0.8699795007705688
      ],
      "min": [
        -0.645230233669281,
        -0.9414748549461365,
        0.33128470182418823
      ],
      "type": "VEC3"
    },
    {
      "bufferView": 1,
      "byteOffset": 469024,
      "componentType": 5126,
      "count": 350,
      "max": [
        0.9947599768638611,
        0.9963600039482117
      ],
      "min": [
        0.004540000110864639,
        0.0014700000174343586
      ],
      "type": "VEC2"
    },
    {
      "bufferView": 0,
      "byteOffset": 1113420,
      "componentType": 5125,
      "count": 1656,
      "type": "SCALAR"
    },
    {
      "bufferView": 2,
      "byteOffset": 1494336,
      "componentType": 5126,
      "count": 21149,
      "max": [
        3.8822898864746094,
        2.665649890899658,
        3.1786599159240723
      ],
      "min": [
        -4.385990142822266,
        -2.6690499782562256,
        -1.0226600170135498
      ],
      "type": "VEC3"
    },
    {
      "bufferView": 2,
      "byteOffset": 1748124,
      "componentType": 5126,
      "count": 21149,
      "max": [
        1.0,
        0.9999913573265076,
        0.9999336004257202
      ],
      "min": [
        -0.9999833703041077,
        -0.999959409236908,
        -0.9999759793281555
      ],
      "type": "VEC3"
    },
    {
      "bufferView": 1,
      "byteOffset": 471824,
      "componentType": 5126,
      "count": 21149,
      "max": [
        0.9994999766349792,
        0.999530017375946
      ],
      "min": [
        0.0005499999970197678,
        0.02782999910414219
      ],
      "type": "VEC2"
    },
    {
      "bufferView": 0,
      "byteOffset": 1120044,
      "componentType": 5125,
      "count": 103248,
      "type": "SCALAR"
    },
    {
      "bufferView": 2,
      "byteOffset": 2001912,
      "componentType": 5126,
      "count": 3807,
      "max": [
        1.3184800148010254,
        1.6783000230789185,
        2.963510036468506
      ],
      "min": [
        -2.818540096282959,
        -1.7332099676132202,
        -0.7385799884796143
      ],
      "type": "VEC3"
    },
    {
      "bufferView": 2,
      "byteOffset": 2047596,
      "componentType": 5126,
      "count": 3807,
      "max": [
        0.9998884797096252,
        0.9998913407325745,
        0.9999553561210632
      ],
      "min": [
        -0.9999271631240845,
        -0.999547004699707,
        -0.9997840523719788
      ],
      "type": "VEC3"
    },
    {
      "bufferView": 1,
      "byteOffset": 641016,
      "componentType": 5126,
      "count": 3807,
      "max": [
        0.8503000140190125,
        0.990090012550354
      ],
      "min": [
        0.0,
        0.0
      ],
      "type": "VEC2"
    },
    {
      "bufferView": 1,
      "byteOffset": 671472,
      "componentType": 5126,
      "count": 3807,
      "max": [
        0.0,
        0.0
      ],
      "min": [
        0.0,
        0.0
      ],
      "type": "VEC2"
    },
    {
      "bufferView": 0,
      "byteOffset": 1533036,
      "componentType": 5125,
      "count": 18078,
      "type": "SCALAR"
    },
    {
      "bufferView": 2,
      "byteOffset": 2093280,
      "componentType": 5126,
      "count": 7864,
      "max": [
        3.637629985809326,
        2.346019983291626,
        1.876960039138794
      ],
      "min": [
        -4.555669784545898,
        -2.3502399921417236,
        -1.0263700485229492
      ],
      "type": "VEC3"
    },
    {
      "bufferView": 2,
      "byteOffset": 2187648,
      "componentType": 5126,
      "count": 7864,
      "max": [
        1.0,
        0.9999949336051941,
        0.9999515414237976
      ],
      "min": [
        -0.9999791979789734,
        -0.9999919533729553,
        -0.9999921917915344
      ],
      "type": "VEC3"
    },
    {
      "bufferView": 1,
      "byteOffset": 701928,
      "componentType": 5126,
      "count": 7864,
      "max": [
        0.9991700053215027,
        0.9997900128364563
      ],
      "min": [
        0.0014400000218302011,
        0.0005799999926239252
      ],
      "type": "VEC2"
    },
    {
      "bufferView": 0,
      "byteOffset": 1605348,
      "componentType": 5125,
      "count": 33627,
      "type": "SCALAR"
    }
  ],
  "asset": {
    "extras": {
      "author": "luyssport (https://sketchfab.com/luyssport)",
      "license": "CC-BY-NC-SA-4.0 (http://creativecommons.org/licenses/by-nc-sa/4.0/)",
      "source": "https://sketchfab.com/3d-models/che-1e529f4b8efc4f20925957a9a4208dcd",
      "title": "cHe"
    },
    "generator": "Sketchfab-12.68.0",
    "version": "2.0"
  },
  "bufferViews": [
    {
      "buffer": 0,
      "byteLength": 1739856,
      "name": "floatBufferViews",
      "target": 34963
    },
    {
      "buffer": 0,
      "byteLength": 764840,
      "byteOffset": 1739856,
      "byteStride": 8,
      "name": "floatBufferViews",
      "target": 34962
    },
    {
      "buffer": 0,
      "byteLength": 2282016,
      "byteOffset": 2504696,
      "byteStride": 12,
      "name": "floatBufferViews",
      "target": 34962
    }
  ],
  "buffers": [
    {
      "byteLength": 4786712,
      "uri": "scene.bin"
    }
  ],
  "extensionsUsed": [
    "KHR_materials_unlit"
  ],
  "images": [
    {
      "uri": "textures/chasis_baseColor.jpeg"
    },
    {
      "uri": "textures/carroceria_baseColor.jpeg"
    },
    {
      "uri": "textures/cristales_baseColor.png"
    },
    {
      "uri": "textures/shadow_baseColor.jpeg"
    },
    {
      "uri": "textures/ruedas_baseColor.jpeg"
    }
  ],
  "materials": [
    {
      "doubleSided": true,
      "extensions": {
        "KHR_materials_unlit": {}
      },
      "name": "chasis",
      "pbrMetallicRoughness": {
        "baseColorTexture": {
          "index": 0
        },
        "metallicFactor": 0.0
      }
    },
    {
      "extensions": {
        "KHR_materials_unlit": {}
      },
      "name": "interior",
      "pbrMetallicRoughness": {
        "baseColorFactor": [
          0.2874408364,
          0.254152149,
          0.3094689548,
          1.0
        ],
        "metallicFactor": 0.0
      }
    },
    {
      "doubleSided": true,
      "extensions": {
        "KHR_materials_unlit": {}
      },
      "name": "carroceria",
      "pbrMetallicRoughness": {
        "baseColorTexture": {
          "index": 1
        },
        "metallicFactor": 0.0
      }
    },
    {
      "alphaMode": "BLEND",
      "extensions": {
        "KHR_materials_unlit": {}
      },
      "name": "cristales",
      "pbrMetallicRoughness": {
        "baseColorFactor": [
          0.0027398011,
          0.0026945967,
          0.002618571,
          0.6724466463
        ],
        "baseColorTexture": {
          "index": 2
        },
        "metallicFactor": 0.0
      }
    },
    {
      "extensions": {
        "KHR_materials_unlit": {}
      },
      "name": "shadow",
      "pbrMetallicRoughness": {
        "baseColorTexture": {
          "index": 3
        },
        "metallicFactor": 0.0
      }
    },
    {
      "extensions": {
        "KHR_materials_unlit": {}
      },
      "name": "clouds",
      "pbrMetallicRoughness": {
        "baseColorFactor": [
          1.0,
          0.8148468733,
          0.5520114899,
          1.0
        ],
        "metallicFactor": 0.0
      }
    },
    {
      "doubleSided": true,
      "extensions": {
        "KHR_materials_unlit": {}
      },
      "name": "ruedas",
      "pbrMetallicRoughness": {
        "baseColorTexture": {
          "index": 4
        },
        "metallicFactor": 0.0
      }
    }
  ],
  "meshes": [
    {
      "name": "Plane.004_0",
      "primitives": [
        {
          "attributes": {
            "NORMAL": 1,
            "POSITION": 0,
            "TEXCOORD_0": 2
          },
          "indices": 3,
          "material": 4,
          "mode": 4
        }
      ]
    },
    {
      "name": "Cube.005_0",
      "primitives": [
        {
          "attributes": {
            "NORMAL": 5,
            "POSITION": 4,
            "TEXCOORD_0": 6
          },
          "indices": 7,
          "material": 6,
          "mode": 4
        }
      ]
    },
    {
      "name": "GP_Layer_CUGP_Layer_0",
      "primitives": [
        {
          "attributes": {
            "NORMAL": 9,
            "POSITION": 8
          },
          "indices": 10,
          "material": 5,
          "mode": 4
        }
      ]
    },
    {
      "name": "Plane_0",
      "primitives": [
        {
          "attributes": {
            "NORMAL": 12,
            "POSITION": 11,
            "TEXCOORD_0": 13
          },
          "indices": 14,
          "material": 4,
          "mode": 4
        }
      ]
    },
    {
      "name": "Cube.000_0",
      "primitives": [
        {
          "attributes": {
            "NORMAL": 16,
            "POSITION": 15,
            "TEXCOORD_0": 17
          },
          "indices": 18,
          "material": 3,
          "mode": 4
        }
      ]
    },
    {
      "name": "Cube.001_0",
      "primitives": [
        {
          "attributes": {
            "NORMAL": 20,
            "POSITION": 19,
            "TEXCOORD_0": 21
          },
          "indices": 22,
          "material": 2,
          "mode": 4
        }
      ]
    },
    {
      "name": "Cube.002_0",
      "primitives": [
        {
          "attributes": {
            "NORMAL": 24,
            "POSITION": 23,
            "TEXCOORD_0": 25,
            "TEXCOORD_1": 26
          },
          "indices": 27,
          "material": 1,
          "mode": 4
        }
      ]
    },
    {
      "name": "Cube.004_0",
      "primitives": [
        {
          "attributes": {
            "NORMAL": 29,
            "POSITION": 28,
            "TEXCOORD_0": 30
          },
          "indices": 31,
          "material": 0,
          "mode": 4
        }
      ]
    }
  ],
  "nodes": [
    {
      "children": [
        1
      ],
      "matrix": [
        1.0,
        0.0,
        0.0,
        0.0,
        0.0,
        2.220446049250313e-16,
        -1.0,
        0.0,
        0.0,
        1.0,
        2.220446049250313e-16,
        0.0,
        0.0,
        0.0,
        0.0,
        1.0
      ],
      "name": "Sketchfab_model"
    },
    {
      "children": [
        2,
        4,
        6,
        8,
        10,
        12,
        14,
        16
      ],
      "name": "Root"
    },
    {
      "children": [
        3
      ],
      "matrix": [
        7.469460000000001,
        -0.0,
        0.0,
        0.0,
        0.0,
        7.45717,
        -0.42825,
        0.0,
        0.0,
        0.42825,
        7.45717,
        0.0,
        1.67983,
        2.77057,
        -1.28027,
        1.0
      ],
      "name": "Plane.004"
    },
    {
      "mesh": 0,
      "name": "Plane.004_0"
    },
    {
      "children": [
        5
      ],
      "matrix": [
        0.99985,
        0.0010000000000000002,
        0.017380000000000007,
        0.0,
        0.0,
        0.9983599999999999,
        -0.05733000000000001,
        0.0,
        -0.017410000000000005,
        0.05732000000000001,
        0.9982,
        0.0,
        0.005220000000000001,
        0.4067,
        0.054410000000000014,
        1.0
      ],
      "name": "Cube.005"
    },
    {
      "mesh": 1,
      "name": "Cube.005_0"
    },
    {
      "children": [
        7
      ],
      "matrix": [
        0.018160000000000003,
        -0.9998400000000001,
        0.0,
        0.0,
        -0.0,
        -0.0,
        1.0,
        0.0,
        -0.9998400000000001,
        -0.018160000000000003,
        -0.0,
        0.0,
        0.0,
        0.0,
        -4.9135,
        1.0
      ],
      "name": "GP_Layer_CUGP_Layer"
    },
    {
      "mesh": 2,
      "name": "GP_Layer_CUGP_Layer_0"
    },
    {
      "children": [
        9
      ],
      "name": "Plane"
    },
    {
      "mesh": 3,
      "name": "Plane_0"
    },
    {
      "children": [
        11
      ],
      "matrix": [
        0.99985,
        0.0010000000000000002,
        0.017380000000000007,
        0.0,
        0.0,
        0.9983599999999999,
        -0.05733000000000001,
        0.0,
        -0.017410000000000005,
        0.05732000000000001,
        0.9982,
        0.0,
        0.005220000000000001,
        0.4067,
        0.054410000000000014,
        1.0
      ],
      "name": "Cube.000"
    },
    {
      "mesh": 4,
      "name": "Cube.000_0"
    },
    {
      "children": [
        13
      ],
      "matrix": [
        0.99985,
        0.0010000000000000002,
        0.017380000000000007,
        0.0,
        0.0,
        0.9983599999999999,
        -0.05733000000000001,
        0.0,
        -0.017410000000000005,
        0.05732000000000001,
        0.9982,
        0.0,
        0.005220000000000001,
        0.4067,
        0.054410000000000014,
        1.0
      ],
      "name": "Cube.001"
    },
    {
      "mesh": 5,
      "name": "Cube.001_0"
    },
    {
      "children": [
        15
      ],
      "matrix": [
        0.99985,
        0.0010000000000000002,
        0.017380000000000007,
        0.0,
        0.0,
        0.9983599999999999,
        -0.05733000000000001,
        0.0,
        -0.017410000000000005,
        0.05732000000000001,
        0.9982,
        0.0,
        0.005220000000000001,
        0.4067,
        0.054410000000000014,
        1.0
      ],
      "name": "Cube.002"
    },
    {
      "mesh": 6,
      "name": "Cube.002_0"
    },
    {
      "children": [
        17
      ],
      "matrix": [
        0.99985,
        0.0010000000000000002,
        0.017380000000000007,
        0.0,
        0.0,
        0.9983599999999999,
        -0.05733000000000001,
        0.0,
        -0.017410000000000005,
        0.05732000000000001,
        0.9982,
        0.0,
        0.005220000000000001,
        0.4067,
        0.054410000000000014,
        1.0
      ],
      "name": "Cube.004"
    },
    {
      "mesh": 7,
      "name": "Cube.004_0"
    }
  ],
  "samplers": [
    {
      "magFilter": 9729,
      "minFilter": 9987,
      "wrapS": 10497,
      "wrapT": 10497
    }
  ],
  "scene": 0,
  "scenes": [
    {
      "name": "Sketchfab_Scene",
      "nodes": [
        0
      ]
    }
  ],
  "textures": [
    {
      "sampler": 0,
      "source": 0
    },
    {
      "sampler": 0,
      "source": 1
    },
    {
      "sampler": 0,
      "source": 2
    },
    {
      "sampler": 0,
      "source": 3
    },
    {
      "sampler": 0,
      "source": 4
    }
  ]
}
