<svg width="62" height="62" viewBox="0 0 62 62" fill="none" xmlns="http://www.w3.org/2000/svg">
<path d="M8.75 8.81836C14.5833 2.93945 21.9434 0 30.8301 0C39.7168 0 47.0768 2.93945 52.9102 8.81836C58.7435 14.6517 61.6602 22.0117 61.6602 30.8984C61.6602 39.7852 58.7435 47.168 52.9102 53.0469C47.0768 58.8802 39.7168 61.7969 30.8301 61.7969C21.9434 61.7969 14.5833 58.8802 8.75 53.0469C2.91667 47.168 0 39.7852 0 30.8984C0 22.0117 2.91667 14.6517 8.75 8.81836ZM15.5176 46.2793C19.5736 50.3353 24.6777 52.3633 30.8301 52.3633C36.9824 52.3633 42.0866 50.3581 46.1426 46.3477C50.1986 42.2917 52.2266 37.1419 52.2266 30.8984C52.2266 24.7005 50.1986 19.5736 46.1426 15.5176C42.0866 11.4616 36.9824 9.43359 30.8301 9.43359C24.5866 9.43359 19.4596 11.4616 15.4492 15.5176C11.4388 19.5736 9.43359 24.7005 9.43359 30.8984C9.43359 37.0964 11.4616 42.2233 15.5176 46.2793ZM43.8867 27.002C43.8867 30.7845 42.4512 33.5872 39.5801 35.4102L44.7754 44.9805H35.1367L30.9668 37.1191H28.4375V44.9805H19.3457V16.3379H33.291C36.4355 16.3379 38.9876 17.3405 40.9473 19.3457C42.9069 21.3053 43.8867 23.8574 43.8867 27.002ZM28.4375 24.1309V29.668H31.6504C33.7012 29.668 34.7266 28.7337 34.7266 26.8652C34.7266 25.0423 33.7012 24.1309 31.6504 24.1309H28.4375Z" fill="black"/>
</svg>
